<svg id="Layer_1" data-name="Layer 1" xmlns="http://www.w3.org/2000/svg" viewBox="0 0 1000 500"><defs><style>.cls-1,.cls-3{fill:#fff;}.cls-2{fill:#2f3037;}.cls-3{stroke:#5e65fb;stroke-miterlimit:10;stroke-width:5px;}</style></defs><rect class="cls-1" width="1000" height="500"/><circle class="cls-2" cx="363.69" cy="268.86" r="23.45"/><path class="cls-2" d="M412,268.86h0a11.59,11.59,0,0,1-11.22-9,38.16,38.16,0,0,0-74.18,0,11.6,11.6,0,0,1-11.22,9h0a11.47,11.47,0,0,1-11.23-14,61.17,61.17,0,0,1,119.08,0A11.48,11.48,0,0,1,412,268.86Z"/><circle class="cls-3" cx="398.73" cy="233.7" r="14.49"/><path class="cls-2" d="M453.68,225.92c0-2.83,2.38-4.56,5.46-4.56s5.46,1.73,5.46,4.56V226c0,2.83-2.38,4.63-5.46,4.63s-5.46-1.8-5.46-4.63Zm.58,12.7a4.88,4.88,0,0,1,9.76,0V264a4.88,4.88,0,1,1-9.76,0Z"/><path class="cls-2" d="M471.91,238.62a4.88,4.88,0,0,1,9.76,0V239c2.24-2.89,5.13-5.52,10.07-5.52,7.38,0,11.68,4.88,11.68,12.77V264a4.88,4.88,0,1,1-9.75,0v-14.7c0-4.62-2.18-7-5.91-7s-6.09,2.37-6.09,7V264a4.88,4.88,0,0,1-9.76,0Z"/><path class="cls-2" d="M509.71,265.26a3.88,3.88,0,0,1-1.86-3.34,3.85,3.85,0,0,1,5.78-3.33,18.12,18.12,0,0,0,9.3,3.08c2.83,0,4.11-1,4.11-2.57V259c0-2.12-3.34-2.82-7.12-4-4.82-1.41-10.27-3.66-10.27-10.33v-.13c0-7,5.64-10.91,12.58-10.91a24.17,24.17,0,0,1,10.65,2.63,4,4,0,0,1,2.31,3.66,3.83,3.83,0,0,1-3.91,3.85,3.57,3.57,0,0,1-1.8-.45,18.3,18.3,0,0,0-7.45-2.18c-2.37,0-3.59,1-3.59,2.37v.13c0,1.93,3.27,2.83,7,4.11,4.81,1.6,10.39,3.91,10.39,10.2v.13c0,7.64-5.71,11.11-13.15,11.11A24,24,0,0,1,509.71,265.26Z"/><path class="cls-2" d="M542.51,258.78v-16.3h-.32a4.18,4.18,0,1,1,0-8.35h.32v-4.3a4.88,4.88,0,1,1,9.75,0v4.3h4.3a4.18,4.18,0,1,1,0,8.35h-4.3v14.69c0,2.25,1,3.34,3.15,3.34.32,0,1-.06,1.15-.06a4.06,4.06,0,0,1,4.05,4,4,4,0,0,1-2.51,3.66,14.27,14.27,0,0,1-5.58,1C546.55,269.11,542.51,266.74,542.51,258.78Z"/><path class="cls-2" d="M564.2,258.65v-.13c0-7.51,5.71-11,13.86-11a24.31,24.31,0,0,1,8.41,1.41v-.58c0-4-2.5-6.29-7.38-6.29a22.6,22.6,0,0,0-6.74,1,4,4,0,0,1-5.45-3.72,4.05,4.05,0,0,1,2.63-3.79,30.06,30.06,0,0,1,11-1.79c5.33,0,9.18,1.41,11.62,3.85s3.72,6.35,3.72,11v15.66a4.68,4.68,0,0,1-4.75,4.69c-2.82,0-4.68-2-4.68-4v-.07a13.25,13.25,0,0,1-10.4,4.37C569.53,269.18,564.2,265.45,564.2,258.65Zm22.4-2.25v-1.73a15.14,15.14,0,0,0-6.23-1.28c-4.17,0-6.74,1.67-6.74,4.75v.13c0,2.63,2.19,4.17,5.33,4.17C583.52,262.44,586.6,259.93,586.6,256.4Z"/><path class="cls-2" d="M601.29,251.53v-.13a17.67,17.67,0,0,1,18-17.91c5.2,0,8.86,1.41,11.75,3.85a4.33,4.33,0,0,1,1.54,3.34,4.38,4.38,0,0,1-4.43,4.36,4.6,4.6,0,0,1-2.83-1,9.27,9.27,0,0,0-6.09-2.18c-4.88,0-8.35,4.3-8.35,9.37v.13c0,5.26,3.4,9.5,8.73,9.5a9.86,9.86,0,0,0,6.42-2.38,4.58,4.58,0,0,1,2.63-.9,4.15,4.15,0,0,1,2.7,7.26c-2.89,2.63-6.55,4.43-12.2,4.43A17.57,17.57,0,0,1,601.29,251.53Z"/><path class="cls-2" d="M636.27,258.65v-.13c0-7.51,5.71-11,13.87-11a24.25,24.25,0,0,1,8.4,1.41v-.58c0-4-2.5-6.29-7.38-6.29a22.65,22.65,0,0,0-6.74,1,3.93,3.93,0,0,1-1.41.26,4,4,0,0,1-4-4,4.05,4.05,0,0,1,2.63-3.79,30.06,30.06,0,0,1,11-1.79c5.33,0,9.18,1.41,11.62,3.85s3.73,6.35,3.73,11v15.66a4.68,4.68,0,0,1-4.75,4.69c-2.83,0-4.69-2-4.69-4v-.07a13.23,13.23,0,0,1-10.4,4.37C641.6,269.18,636.27,265.45,636.27,258.65Zm22.4-2.25v-1.73a15.12,15.12,0,0,0-6.22-1.28c-4.18,0-6.74,1.67-6.74,4.75v.13c0,2.63,2.18,4.17,5.32,4.17C655.59,262.44,658.67,259.93,658.67,256.4Z"/><path class="cls-2" d="M675,238.62a4.88,4.88,0,0,1,9.75,0v1.55c1.41-3.34,3.73-6.42,6.61-6.42a4.71,4.71,0,0,1,1.09,9.3c-4.94,1.16-7.7,4.95-7.7,11.88V264a4.88,4.88,0,1,1-9.75,0Z"/></svg>