<svg id="Réteg_1" data-name="Réteg 1" xmlns="http://www.w3.org/2000/svg" xmlns:xlink="http://www.w3.org/1999/xlink" viewBox="0 0 1000 500"><defs><style>.cls-1,.cls-5{fill:none;}.cls-2{clip-path:url(#clip-path);}.cls-3{fill:#2f3037;}.cls-4{fill:#fff;}.cls-5{stroke:#4149df;stroke-miterlimit:10;stroke-width:5px;}.cls-6{fill:#4149df;}</style><clipPath id="clip-path"><rect class="cls-1" width="1000" height="500"/></clipPath></defs><title>transparent-Rajztábla 1</title><g class="cls-2"><path class="cls-3" d="M183.34,237.73a52.75,52.75,0,1,1-52.75,52.75,52.75,52.75,0,0,1,52.75-52.75"/><path class="cls-3" d="M292,290.48h0a26.07,26.07,0,0,1-25.24-20.17,85.86,85.86,0,0,0-166.92,0,26.07,26.07,0,0,1-25.24,20.17c-16.56,0-29.06-15.39-25.27-31.51,14.28-60.74,68.93-106.1,134-106.1S303,198.23,317.31,259c3.79,16.12-8.71,31.51-25.27,31.51"/><path class="cls-4" d="M294.79,211.37a32.6,32.6,0,1,1-32.6-32.6,32.6,32.6,0,0,1,32.6,32.6"/><circle class="cls-5" cx="262.19" cy="211.37" r="32.6"/><path class="cls-3" d="M394.68,151.11c0-6.35,5.34-10.25,12.27-10.25s12.28,3.9,12.28,10.25v.29c0,6.35-5.34,10.4-12.28,10.4s-12.27-4-12.27-10.4Zm1.3,28.6a11,11,0,0,1,22,0V236.9a11,11,0,0,1-22,0Z"/><path class="cls-3" d="M435.69,179.71a11,11,0,1,1,22,0v.87c5.06-6.5,11.56-12.42,22.67-12.42,16.61,0,26.28,11,26.28,28.74v40a11,11,0,1,1-21.95,0V203.83c0-10.4-4.91-15.74-13.29-15.74s-13.72,5.34-13.72,15.74V236.9a11,11,0,1,1-22,0Z"/><path class="cls-3" d="M520.75,239.64a8.75,8.75,0,0,1-4.19-7.51,8.51,8.51,0,0,1,8.66-8.67,8.42,8.42,0,0,1,4.33,1.16c7.37,4.62,14.73,6.93,20.94,6.93s9.24-2.31,9.24-5.78v-.29c0-4.77-7.51-6.35-16-9-10.83-3.18-23.11-8.23-23.11-23.25V193c0-15.74,12.71-24.55,28.3-24.55a54.42,54.42,0,0,1,24,5.92,8.94,8.94,0,0,1,5.2,8.23,8.63,8.63,0,0,1-8.81,8.66,8,8,0,0,1-4-1c-6.21-3-12.13-4.91-16.75-4.91-5.34,0-8.09,2.31-8.09,5.34V191c0,4.33,7.36,6.35,15.74,9.24,10.83,3.61,23.4,8.81,23.4,23v.29c0,17.19-12.86,25-29.61,25a53.93,53.93,0,0,1-29.17-8.81"/><path class="cls-3" d="M754,321.65V290.2h-.62a8,8,0,0,1,0-16.09H754v-8.3a9.41,9.41,0,1,1,18.82,0v8.3h8.29a8,8,0,1,1,0,16.09h-8.29v28.35c0,4.33,1.86,6.44,6.07,6.44.62,0,1.86-.12,2.23-.12a7.84,7.84,0,0,1,7.8,7.8,7.66,7.66,0,0,1-4.83,7.06,27.77,27.77,0,0,1-10.77,1.86C761.8,341.58,754,337,754,321.65"/><path class="cls-3" d="M643.34,224.77v-.29c0-16.9,12.85-24.69,31.19-24.69A55,55,0,0,1,693.46,203v-1.3c0-9.1-5.63-14.15-16.61-14.15a50.33,50.33,0,0,0-15.16,2.17,9.31,9.31,0,0,1-3.18.58,8.94,8.94,0,0,1-9.09-9,9.1,9.1,0,0,1,5.92-8.52c6.93-2.6,14.44-4,24.7-4,12,0,20.65,3.18,26.14,8.66,5.78,5.78,8.38,14.3,8.38,24.69v35.24a10.54,10.54,0,0,1-10.69,10.54c-6.35,0-10.54-4.48-10.54-9.1v-.14c-5.34,5.92-12.71,9.82-23.39,9.82-14.59,0-26.57-8.37-26.57-23.68m50.4-5.06v-3.9a34.05,34.05,0,0,0-14-2.89c-9.39,0-15.16,3.76-15.16,10.69v.29c0,5.92,4.91,9.38,12,9.38,10.25,0,17.19-5.63,17.19-13.57"/><path class="cls-3" d="M726.81,208.74v-.29c0-22.1,16.9-40.29,40.58-40.29,11.7,0,19.93,3.18,26.43,8.66a9.73,9.73,0,0,1,3.46,7.51,9.86,9.86,0,0,1-10,9.82A10.33,10.33,0,0,1,781,192a20.92,20.92,0,0,0-13.72-4.91c-11,0-18.77,9.68-18.77,21.08v.29c0,11.84,7.65,21.37,19.64,21.37a22.23,22.23,0,0,0,14.44-5.34,10.22,10.22,0,0,1,5.92-2,9.31,9.31,0,0,1,6.07,16.32c-6.5,5.92-14.73,10-27.44,10-23.25,0-40.29-17.91-40.29-40"/><path class="cls-3" d="M805.51,224.77v-.29c0-16.9,12.85-24.69,31.19-24.69A55,55,0,0,1,855.62,203v-1.3c0-9.1-5.63-14.15-16.61-14.15a50.32,50.32,0,0,0-15.16,2.17,9.31,9.31,0,0,1-3.18.58,8.94,8.94,0,0,1-9.1-9,9.1,9.1,0,0,1,5.92-8.52c6.93-2.6,14.44-4,24.69-4,12,0,20.65,3.18,26.14,8.66,5.78,5.78,8.38,14.3,8.38,24.69v35.24A10.54,10.54,0,0,1,866,247.87c-6.35,0-10.54-4.48-10.54-9.1v-.14c-5.34,5.92-12.71,9.82-23.4,9.82-14.59,0-26.57-8.37-26.57-23.68m50.4-5.06v-3.9a34,34,0,0,0-14-2.89c-9.39,0-15.16,3.76-15.16,10.69v.29c0,5.92,4.91,9.38,12,9.38,10.25,0,17.19-5.63,17.19-13.57"/><path class="cls-3" d="M892.73,179.71a11,11,0,0,1,22,0v3.47c3.18-7.51,8.38-14.44,14.87-14.44,6.79,0,10.69,4.48,10.69,10.69A10.1,10.1,0,0,1,932,189.67c-11.12,2.6-17.33,11.12-17.33,26.72V236.9a11,11,0,1,1-22,0Z"/><path class="cls-3" d="M394.68,322.73v-.23c0-13.45,10.23-19.65,24.83-19.65a43.75,43.75,0,0,1,15.06,2.53v-1c0-7.24-4.48-11.26-13.22-11.26a40.06,40.06,0,0,0-12.07,1.72,7.41,7.41,0,0,1-2.53.46,7.11,7.11,0,0,1-7.24-7.13,7.24,7.24,0,0,1,4.71-6.78,53.66,53.66,0,0,1,19.66-3.22c9.54,0,16.44,2.53,20.81,6.9,4.6,4.6,6.67,11.38,6.67,19.65v28a8.39,8.39,0,0,1-8.51,8.39c-5.06,0-8.39-3.56-8.39-7.24v-.11c-4.25,4.71-10.11,7.82-18.62,7.82-11.61,0-21.15-6.67-21.15-18.85m40.12-4v-3.1a27.1,27.1,0,0,0-11.15-2.3c-7.47,0-12.07,3-12.07,8.51V322c0,4.71,3.91,7.47,9.54,7.47,8.16,0,13.68-4.48,13.68-10.8"/><path class="cls-3" d="M459.38,287.33a8.74,8.74,0,1,1,17.47,0V288c4-5.17,9.2-9.89,18-9.89,13.22,0,20.92,8.74,20.92,22.87v31.84a8.73,8.73,0,1,1-17.47,0V306.52c0-8.28-3.91-12.53-10.57-12.53s-10.92,4.25-10.92,12.53v26.32a8.74,8.74,0,1,1-17.47,0Z"/><path class="cls-3" d="M521.83,322.73v-.23c0-13.45,10.23-19.65,24.83-19.65a43.75,43.75,0,0,1,15.06,2.53v-1c0-7.24-4.48-11.26-13.22-11.26a40.06,40.06,0,0,0-12.07,1.72,7.41,7.41,0,0,1-2.53.46,7.11,7.11,0,0,1-7.24-7.13,7.24,7.24,0,0,1,4.71-6.78A53.66,53.66,0,0,1,551,278.13c9.54,0,16.44,2.53,20.81,6.9,4.6,4.6,6.67,11.38,6.67,19.65v28a8.39,8.39,0,0,1-8.51,8.39c-5.06,0-8.39-3.56-8.39-7.24v-.11c-4.25,4.71-10.11,7.82-18.62,7.82-11.61,0-21.15-6.67-21.15-18.85m40.12-4v-3.1a27.1,27.1,0,0,0-11.15-2.3c-7.47,0-12.07,3-12.07,8.51V322c0,4.71,3.91,7.47,9.54,7.47,8.16,0,13.68-4.48,13.68-10.8"/><path class="cls-3" d="M803.54,264.57c0-5.06,4.25-8.16,9.77-8.16s9.77,3.1,9.77,8.16v.23c0,5.06-4.25,8.28-9.77,8.28s-9.77-3.22-9.77-8.28Zm1,22.76a8.74,8.74,0,0,1,17.47,0v45.52a8.74,8.74,0,0,1-17.47,0Z"/><path class="cls-3" d="M828.09,309.74v-.23c0-17.59,13.45-32.07,32.3-32.07,9.31,0,15.86,2.53,21,6.9a7.74,7.74,0,0,1,2.76,6,7.85,7.85,0,0,1-7.93,7.82,8.22,8.22,0,0,1-5.06-1.72,16.65,16.65,0,0,0-10.92-3.91c-8.74,0-14.94,7.7-14.94,16.78v.23c0,9.42,6.09,17,15.63,17a17.69,17.69,0,0,0,11.5-4.25,8.14,8.14,0,0,1,4.71-1.61,7.41,7.41,0,0,1,4.83,13c-5.17,4.71-11.72,7.93-21.84,7.93-18.51,0-32.07-14.25-32.07-31.84"/><path class="cls-3" d="M893.46,334.57a7,7,0,0,1-3.33-6,6.77,6.77,0,0,1,6.9-6.9,6.7,6.7,0,0,1,3.45.92c5.86,3.68,11.72,5.52,16.67,5.52s7.36-1.84,7.36-4.6v-.23c0-3.79-6-5.06-12.76-7.13-8.62-2.53-18.39-6.55-18.39-18.5v-.23c0-12.53,10.11-19.54,22.53-19.54A43.32,43.32,0,0,1,935,282.61a7.12,7.12,0,0,1,4.14,6.55,6.87,6.87,0,0,1-7,6.9,6.37,6.37,0,0,1-3.22-.8c-4.94-2.41-9.66-3.91-13.33-3.91-4.25,0-6.44,1.84-6.44,4.25v.23c0,3.45,5.86,5.06,12.53,7.35,8.62,2.87,18.62,7,18.62,18.28v.23c0,13.68-10.23,19.89-23.57,19.89a42.92,42.92,0,0,1-23.22-7"/><path class="cls-6" d="M630.1,299.28,612.42,336h-9.34l24-49.47-.89-4.62q-1.57-7.55-4.22-10.26a8.1,8.1,0,0,0-5.9-2.7,7.13,7.13,0,0,0-5.14,2.15q-2.2,2.15-2.89,7h-1.89q.16-8.18,4-13.12a8.32,8.32,0,0,1,6.77-3.57,7.87,7.87,0,0,1,6,2.78q3.78,4.25,6.19,15l8.39,36.94q1.89,8.29,4.3,10.76a7.38,7.38,0,0,0,5.56,2.52,6.65,6.65,0,0,0,5-2q2-2,2.33-6.56h2q.05,1.37.05,2,0,6.87-3.41,11.07a8.26,8.26,0,0,1-6.72,3.15,8.76,8.76,0,0,1-6.56-3.1q-2.89-3.1-5.4-14.22Z"/><path class="cls-6" d="M699.14,287.89v46.59a13.66,13.66,0,0,0,6.51-2.94q2.47-2.15,4.3-7.29t3-18.52q1-11.07,3.46-15.19t8.29-4.12a29.49,29.49,0,0,1,5.93.89V289a5.8,5.8,0,0,0-3.36.79,8.05,8.05,0,0,0-2.47,4,57,57,0,0,0-1.73,10.44q-1.21,12.28-3.46,17.79a25.11,25.11,0,0,1-5.09,7.63,25.47,25.47,0,0,1-7.06,5.4,24.8,24.8,0,0,1-8.32,2.33v21.72h-5.72V337.42a25.46,25.46,0,0,1-12.49-5,24.76,24.76,0,0,1-8-10.31q-2-4.72-3.46-18a64.58,64.58,0,0,0-1.78-10.7,7,7,0,0,0-2.36-3.72,6.15,6.15,0,0,0-3.41-.68v-1.73a37,37,0,0,1,6-.89,10.07,10.07,0,0,1,5.72,1.76,10.53,10.53,0,0,1,3.93,5.33q1.31,3.57,2,12.28,1,13,2.86,18.21t4.28,7.42a14.35,14.35,0,0,0,6.61,3.07V287.89Z"/><path class="cls-3" d="M595.6,225V185.45h-.78a10.11,10.11,0,0,1,0-20.22h.78V154.81a11.82,11.82,0,1,1,23.64,0v10.42h10.42a10.11,10.11,0,0,1,0,20.22H619.25v35.62c0,5.45,2.33,8.09,7.62,8.09.78,0,2.33-.16,2.8-.16a9.86,9.86,0,0,1,9.8,9.8,9.62,9.62,0,0,1-6.07,8.87A34.89,34.89,0,0,1,619.87,250c-14.46,0-24.26-5.76-24.26-25"/></g></svg>